<svg width="1024" height="1024" viewBox="0 0 1024 1024" fill="none" xmlns="http://www.w3.org/2000/svg">
<path d="M512.5 121C728.167 121 903 295.833 903 511.5C903 727.167 728.167 902 512.5 902C296.833 902 122 727.167 122 511.5C122 295.833 296.833 121 512.5 121ZM633.5 550.5L633.2 550.047C624.396 578.122 606.106 601.999 582.085 617.925L556.453 798.694C694.689 777.714 800.932 659.312 802.968 515.702L633.5 550.5ZM222.033 515.908C224.163 659.071 329.853 777.139 467.523 798.537L441.914 617.925C417.893 601.999 399.603 578.122 390.799 550.047L390.5 550.5L222.033 515.908ZM512 409C455.115 409 409 455.115 409 512C409 568.885 455.115 615 512 615C568.885 615 615 568.885 615 512C615 455.115 568.885 409 512 409ZM512.5 221C381.133 221 270.133 308.197 234.219 427.869L454.515 398.725C471.775 389.948 491.31 385 512 385C532.69 385 552.224 389.948 569.484 398.725L790.821 428.007C754.951 308.264 643.917 221 512.5 221Z" fill="black"/>
</svg>
